<?xml version="1.0" encoding="utf-8"?>
<!-- Generator: Adobe Illustrator 25.2.1, SVG Export Plug-In . SVG Version: 6.00 Build 0)  -->
<svg version="1.1" id="Layer_1" xmlns="http://www.w3.org/2000/svg" xmlns:xlink="http://www.w3.org/1999/xlink" x="0px" y="0px"
	 viewBox="0 0 542.77 277.52" style="enable-background:new 0 0 542.77 277.52;" xml:space="preserve">
<style type="text/css">
	.st0{fill:#7E22CE;}
	.st1{fill:#FFFFFF;}
</style>
<g>
	<g>
		<g>
			<g>
				<g>
					<g>
						<path class="st0" d="M495.78,31.72c25.12,17.45,36.05,42.11,32.3,65.15c-0.08,0.48,0.15,0.96,0.55,1.19
							c2.97,1.67,5.45,3.06,7.2,4.03c0.58,0.32,1.29,0.01,1.49-0.65c7.82-25.98-4.51-59.48-36.6-80.83
							c-0.56-0.37-1.31-0.11-1.57,0.53c-1.46,3.57-2.43,6.09-3.77,9.18C495.17,30.83,495.34,31.42,495.78,31.72z"/>
					</g>
				</g>
				<g>
					<g>
						<path class="st0" d="M521.06,115.86c-0.27-0.12-0.55-0.02-0.72,0.25c-0.64,1.03-2.18,3.52-2.63,4.15
							c-4.87,6.87-7.7,9.69-11.24,12.88c-3.54,3.19-3.13,3.51,0.02,2.04c8.93-4.17,14.51-7.75,21.04-15.49
							c0.33-0.39,0.18-1.07-0.26-1.26C525.61,117.69,522.08,116.31,521.06,115.86z"/>
					</g>
				</g>
				<g>
					<g>
						<path class="st0" d="M385.85,35.35c19.07-21.77,55.79-28.06,89.55-13.8c0.36,0.15,0.78,0,0.99-0.35
							c1.1-1.86,4.63-6.66,5.81-8.48c0.31-0.47,0.11-1.14-0.4-1.34c-37.1-14.11-77.22-5.3-94.89,21.45
							c-0.53,0.81-1.03,1.63-1.5,2.46C385.54,35.31,385.69,35.33,385.85,35.35z"/>
					</g>
				</g>
			</g>
			<g>
				<g>
					<path class="st0" d="M364.67,224.77c-4.06,7.31-28.28,50.53-26.71,51.4s28.41-38.75,36.46-51.4H364.67z"/>
				</g>
			</g>
			<g>
				<g>
					<path class="st0" d="M534.81,111.06c-0.54-0.39-1.06-0.81-1.65-1.12c-4.86-2.5-62.25-31.84-65.03-33.24
						c-2.08-1.05-2.94-3.85-1.6-6.41c3.92-7.49,7.38-14.46,11.36-21.93c2.66-4.99,5.35-9.97,7.76-15.05
						c3.38-7.14,6.5-14.22,9.58-21.42c0.69-1.6,2.4-5.67,2.15-5.85c-0.26-0.18-0.81,0.66-1.3,1.33c-0.49,0.66-6.93,9.83-10.46,14.98
						c-3,4.38-26.31,41.77-28.43,44.57c-2.12,2.8-3.78,2.9-6.67,2.24s-18.52-7.32-21.56-8.62c-4.14-1.76-47.09-18.68-48.55-18.4
						c-1.46,0.28,2.55,2.79,3.77,3.5c3.8,2.21,51.11,26.56,55.91,28.84c3.96,1.88,7.53,3.93,7.59,6.02c0.06,2.09-0.8,3.02-2.58,6.56
						c-1.02,2.04-19.28,33.54-30.02,52.73h10.83c0,0,28.23-48.18,29.42-50.03c1.98-3.07,5.08-5.64,7.63-4.65
						c2.55,0.99,6.77,2.6,9.38,3.78c4.74,2.14,59.02,21.95,61.94,22.93c0.21,0.07,0.45,0.11,0.64-0.16
						C535.09,111.41,534.98,111.18,534.81,111.06z"/>
				</g>
			</g>
		</g>
		<g>
			<path class="st1" d="M37.69,109.48H15.47l-3.66,8.81H2.4l19.44-46.54h9.42l19.44,46.54h-9.35L37.69,109.48z M34.78,102.57
				L26.58,83l-8.2,19.58H34.78z"/>
			<path class="st1" d="M58.83,71.75h8.4v46.54h-8.4V71.75z"/>
			<path class="st1" d="M80.1,71.75h8.4v46.54h-8.4V71.75z"/>
			<path class="st1" d="M126.44,102.1l11.38,16.19h-9.62l-10.97-15.65h-7.45v15.65h-8.4V71.75h20.26c9.89,0,17.41,6.37,17.41,15.44
				C139.04,94.72,133.89,100.41,126.44,102.1z M109.78,94.85h10.84c5.76,0,9.75-2.91,9.75-7.65c0-4.74-4-7.65-9.75-7.65h-10.84
				V94.85z"/>
			<path class="st1" d="M145.75,94.99c0-13.07,11.18-24.05,24.39-24.05c13.28,0,24.45,10.97,24.45,24.05
				c0,13.07-11.18,24.12-24.45,24.12C156.93,119.1,145.75,108.06,145.75,94.99z M185.92,94.99c0-8.87-7.18-16.33-15.78-16.33
				c-8.53,0-15.78,7.45-15.78,16.33c0,8.94,7.25,16.39,15.78,16.39C178.74,111.38,185.92,103.93,185.92,94.99z"/>
			<path class="st1" d="M204.42,71.75h8.4l15.38,28.38l15.31-28.38h8.47v46.54h-8.47V87.2l-15.31,28.38L212.82,87.2v31.09h-8.4
				V71.75z"/>
			<path class="st1" d="M261.74,94.99c0-13.07,11.18-24.05,24.39-24.05c13.28,0,24.45,10.97,24.45,24.05
				c0,13.07-11.18,24.12-24.45,24.12C272.92,119.1,261.74,108.06,261.74,94.99z M301.91,94.99c0-8.87-7.18-16.33-15.78-16.33
				c-8.53,0-15.78,7.45-15.78,16.33c0,8.94,7.25,16.39,15.78,16.39C294.73,111.38,301.91,103.93,301.91,94.99z"/>
			<path class="st1" d="M345.47,102.1l11.38,16.19h-9.62l-10.97-15.65h-7.45v15.65h-8.4V71.75h20.26c9.89,0,17.41,6.37,17.41,15.44
				C358.07,94.72,352.93,100.41,345.47,102.1z M328.81,94.85h10.84c5.76,0,9.75-2.91,9.75-7.65c0-4.74-4-7.65-9.75-7.65h-10.84
				V94.85z"/>
			<path class="st1" d="M367.84,71.75h8.4v46.54h-8.4V71.75z"/>
			<path class="st1" d="M4.09,182.31c0-13.07,11.18-24.05,24.39-24.05c6.84,0,13.14,2.91,17.61,7.52l-6.03,5.62
				c-2.91-3.32-7.05-5.42-11.58-5.42c-8.53,0-15.78,7.45-15.78,16.32c0,8.94,7.25,16.39,15.78,16.39c4.54,0,8.67-2.1,11.65-5.42
				l5.96,5.56c-4.47,4.67-10.77,7.59-17.61,7.59C15.27,206.42,4.09,195.38,4.09,182.31z"/>
			<path class="st1" d="M54.83,159.07h8.4v46.54h-8.4V159.07z"/>
			<path class="st1" d="M101.17,189.42l11.38,16.19h-9.62l-10.97-15.65h-7.45v15.65h-8.4v-46.54h20.26
				c9.89,0,17.41,6.37,17.41,15.44C113.77,182.04,108.62,187.73,101.17,189.42z M84.51,182.17h10.84c5.76,0,9.75-2.91,9.75-7.65
				c0-4.74-4-7.66-9.75-7.66H84.51V182.17z"/>
			<path class="st1" d="M120.48,182.31c0-13.07,11.18-24.05,24.39-24.05c6.84,0,13.14,2.91,17.61,7.52l-6.03,5.62
				c-2.91-3.32-7.05-5.42-11.58-5.42c-8.53,0-15.78,7.45-15.78,16.32c0,8.94,7.25,16.39,15.78,16.39c4.54,0,8.67-2.1,11.65-5.42
				l5.96,5.56c-4.47,4.67-10.77,7.59-17.61,7.59C131.66,206.42,120.48,195.38,120.48,182.31z"/>
			<path class="st1" d="M203.54,197.89v7.72h-32.31v-46.54h8.4v38.82H203.54z"/>
			<path class="st1" d="M220.41,166.8v11.24h23.98v7.72h-23.98v12.13h26.55v7.72h-35.02v-46.54h35.02v7.72H220.41z"/>
			<path class="st1" d="M252.73,159.07h9.28l9.96,33.33l11.04-33.33h9.15l10.97,33.33l10.03-33.33h9.21l-14.7,46.54h-8.4
				l-11.65-34.55l-11.72,34.55h-8.4L252.73,159.07z"/>
			<path class="st1" d="M327.8,182.31c0-13.07,11.18-24.05,24.39-24.05c13.28,0,24.45,10.97,24.45,24.05
				c0,13.07-11.18,24.12-24.45,24.12C338.97,206.42,327.8,195.38,327.8,182.31z M367.97,182.31c0-8.87-7.18-16.32-15.78-16.32
				c-8.53,0-15.78,7.45-15.78,16.32c0,8.94,7.25,16.39,15.78,16.39C360.79,198.7,367.97,191.25,367.97,182.31z"/>
			<path class="st1" d="M411.53,189.42l11.38,16.19h-9.62l-10.97-15.65h-7.45v15.65h-8.4v-46.54h20.26
				c9.89,0,17.41,6.37,17.41,15.44C424.13,182.04,418.98,187.73,411.53,189.42z M394.87,182.17h10.84c5.76,0,9.75-2.91,9.75-7.65
				c0-4.74-4-7.66-9.75-7.66h-10.84V182.17z"/>
			<path class="st1" d="M433.89,159.07h8.4v22.76l20.39-22.76h10.43l-18.63,20.53l19.92,26.01h-10.36l-15.44-20.05l-6.3,6.77v13.28
				h-8.4V159.07z"/>
			<path class="st1" d="M478.67,198.84l4.94-6.03c4.27,3.86,9.21,6.3,15.31,6.3c5.69,0,8.67-2.84,8.67-6.16
				c0-3.86-3.32-5.15-10.77-6.91c-9.62-2.24-16.26-5.01-16.26-13.75c0-8.13,6.91-14.02,16.66-14.02c7.39,0,13.01,2.51,17.61,6.5
				l-4.61,6.16c-4-3.46-8.67-5.42-13.28-5.42c-4.74,0-7.86,2.78-7.86,6.03c0,3.79,3.39,5.15,10.77,6.84
				c9.69,2.17,16.19,5.28,16.19,13.75c0,8.33-6.3,14.23-17.48,14.23C490.67,206.36,483.82,203.65,478.67,198.84z"/>
		</g>
	</g>
</g>
</svg>
